<svg viewBox="0 0 1000 1000" xmlns="http://www.w3.org/2000/svg"><path d="m363.99 341.21v-314.63c0-11.6-9.4-21.01-21.01-21.01s-21.01 9.4-21.01 21.01v258.19c-33.97-16.34-83.76-16-132.37 4.34-73.23 30.65-116.04 95.07-95.6 143.89 20.43 48.82 96.36 63.55 169.6 32.91 63.96-26.77 104.7-79.3 100.39-124.7z" fill="#666"/><path d="m489.1 705.18c-22.35-8.16-43.14-5.59-60.76 2.68v-132.81h-134.13c-6.03 0-9.67 6.61-6.36 11.65 10.78 16.43 15.64 37.09 11.28 59.04-6.16 31.07-31.93 56.26-63.13 61.71-49.88 8.7-93.19-29.45-93.19-77.71 0-15.84 4.72-30.54 12.77-42.87 3.34-5.12-.18-11.81-6.29-11.81h-128.02v334.57c0 36.69 29.74 66.44 66.44 66.44h340.64v-125.61c10.19 4.78 21.43 7.67 33.42 7.67 49.5 0 88.36-45.55 76.96-97.02-5.66-25.52-25.07-46.94-49.62-55.91z" fill="#f2f2f2"/><path d="m428.34 994.43h-340.63c-46.77 0-84.82-38.05-84.82-84.82v-334.57c0-10.15 8.23-18.38 18.38-18.38h128.03c9.55 0 18.29 5.19 22.82 13.56 4.55 8.41 4.11 18.63-1.14 26.68-6.4 9.8-9.79 21.16-9.79 32.83 0 17.93 7.88 34.84 21.63 46.39 13.94 11.72 31.7 16.41 50.02 13.21 23.73-4.14 43.58-23.54 48.26-47.18 3.17-15.96.1-32.08-8.62-45.38-5.23-7.97-5.67-18.12-1.15-26.49 4.54-8.4 13.3-13.62 22.88-13.62h134.13c10.15 0 18.38 8.23 18.38 18.38v107.99c16.12-2.62 32.59-1.01 48.68 4.87 30.82 11.26 54.29 37.77 61.25 69.2 6.55 29.54-.36 59.76-18.95 82.93-18.59 23.16-46.27 36.45-75.95 36.45-5.04 0-10.06-.41-15.04-1.22v100.78c0 10.15-8.23 18.38-18.38 18.38zm-388.69-401v316.19c0 26.5 21.56 48.06 48.06 48.06h322.26v-107.23c0-6.29 3.22-12.14 8.52-15.51 5.31-3.37 11.97-3.8 17.67-1.12 8.37 3.93 16.99 5.92 25.61 5.92 18.47 0 35.7-8.27 47.28-22.7 11.75-14.64 15.92-33.09 11.73-51.96-4.21-19-19.12-35.73-37.98-42.62-15.77-5.76-31.46-5.07-46.64 2.05-5.69 2.67-12.36 2.25-17.67-1.12s-8.52-9.23-8.52-15.51v-114.43h-97.93c7.08 17.48 8.92 36.78 5.13 55.88-3.75 18.9-13.21 36.2-27.36 50.03s-31.66 22.9-50.65 26.21c-28.77 5.02-57.93-2.74-80-21.28-22.07-18.55-34.73-45.72-34.73-74.53 0-12.53 2.41-24.82 7.07-36.3h-91.85z" fill="#666"/><path d="m723.19 514.98c-8.05 22.03-5.51 42.51 2.64 59.88h-142.31v132.19c0 5.95 6.51 9.53 11.48 6.27 16.2-10.63 36.55-15.41 58.18-11.12 30.62 6.07 55.45 31.47 60.82 62.22 8.58 49.16-29.02 91.84-76.59 91.84-15.61 0-30.1-4.65-42.25-12.59-5.04-3.29-11.64.17-11.64 6.2v126.18h329.73c36.16 0 65.48-29.31 65.48-65.48v-335.71h-112.38c4.71-10.04 7.55-21.12 7.55-32.94 0-48.79-44.89-87.09-95.61-75.84-25.15 5.57-46.27 24.7-55.1 48.9z" fill="#f2f2f2"/><path d="m913.25 994.43h-329.73c-10.15 0-18.38-8.23-18.38-18.38v-126.18c0-9.51 5.17-18.22 13.5-22.73 8.37-4.53 18.55-4.1 26.57 1.14 9.62 6.28 20.76 9.6 32.21 9.6 17.59 0 34.18-7.73 45.52-21.22 11.49-13.67 16.1-31.11 12.96-49.08-4.06-23.28-23.1-42.75-46.29-47.35-15.67-3.11-31.48-.1-44.52 8.46-7.94 5.21-18.04 5.65-26.38 1.14-8.37-4.52-13.56-13.25-13.56-22.78v-132.19c0-10.15 8.23-18.38 18.38-18.38h117.54c-2.52-15.83-.91-32.01 4.86-47.81 11.12-30.46 37.33-53.65 68.39-60.54 29.18-6.47 59.06.36 81.95 18.73s36.02 45.73 36.02 75.06c0 4.88-.39 9.74-1.15 14.56h87.59c10.15 0 18.38 8.23 18.38 18.38v335.71c0 46.24-37.62 83.86-83.86 83.86zm-311.35-36.76h311.35c25.97 0 47.1-21.13 47.1-47.1v-317.33h-93.99c-6.29 0-12.14-3.22-15.51-8.52-3.37-5.31-3.8-11.97-1.12-17.67 3.86-8.22 5.81-16.67 5.81-25.13 0-18.12-8.12-35.03-22.27-46.39-14.36-11.53-32.47-15.62-50.99-11.51-18.64 4.13-35.06 18.76-41.82 37.26-5.65 15.48-4.97 30.87 2.01 45.76 2.67 5.69 2.25 12.36-1.12 17.67s-9.23 8.52-15.51 8.52h-123.93v95.85c17.18-6.87 36.11-8.64 54.86-4.92 18.68 3.7 35.78 13.05 49.45 27.04s22.63 31.29 25.9 50.05c4.96 28.44-2.7 57.25-21.04 79.06s-45.18 34.32-73.66 34.32c-12.25 0-24.27-2.33-35.51-6.84v89.86z" fill="#666"/><path d="m524.36 278.4c21.71 7.93 41.9 5.43 59.01-2.6v140.24l142.52.03c5.86 0 9.39-6.42 6.18-11.32-10.47-15.96-15.19-36.02-10.96-57.34 5.98-30.18 31.01-54.64 61.32-59.93 48.45-8.45 90.51 28.6 90.51 75.47 0 15.38-4.58 29.66-12.41 41.64-3.24 4.97.17 11.47 6.11 11.47l112.1-.03v-324.93c0-35.64-28.89-64.53-64.53-64.53h-330.83v110.74c-9.89-4.64-20.81-7.44-32.46-7.44-48.08 0-85.82 44.24-74.74 94.23 5.49 24.78 24.35 45.59 48.19 54.3z" fill="#f2f2f2"/><path d="m866.63 434.45c-9.47 0-18.14-5.15-22.63-13.44-4.51-8.34-4.08-18.47 1.13-26.46 6.16-9.43 9.42-20.36 9.42-31.59 0-17.26-7.59-33.53-20.82-44.65-13.41-11.28-30.51-15.79-48.15-12.71-22.84 3.98-41.94 22.65-46.45 45.4-3.05 15.37-.1 30.88 8.3 43.68 5.18 7.9 5.62 17.97 1.14 26.27-4.5 8.33-13.19 13.51-22.69 13.51l-142.52-.03c-10.15 0-18.38-8.23-18.38-18.38v-115.52c-15.54 2.42-31.42.81-46.94-4.86-30.1-10.99-53.02-36.89-59.83-67.59-6.39-28.84.35-58.36 18.51-80.99 18.16-22.62 45.19-35.6 74.18-35.6 4.72 0 9.42.37 14.08 1.09v-86c0-10.15 8.23-18.38 18.38-18.38h330.83c45.71 0 82.91 37.19 82.91 82.91v324.94c0 10.15-8.23 18.38-18.38 18.38l-112.1.03zm-264.88-36.78 106.04.02c-6.67-16.88-8.36-35.46-4.72-53.84 3.66-18.46 12.9-35.36 26.72-48.87s30.93-22.36 49.47-25.6c28.1-4.9 56.58 2.67 78.13 20.79 21.56 18.12 33.92 44.65 33.92 72.79 0 11.97-2.26 23.72-6.61 34.73l75.65-.02v-306.57c0-25.44-20.7-46.15-46.15-46.15h-312.45v92.36c0 6.29-3.22 12.14-8.52 15.51-5.31 3.37-11.97 3.8-17.67 1.12-8.06-3.78-16.35-5.7-24.65-5.7-17.78 0-34.36 7.96-45.51 21.85-11.31 14.09-15.32 31.85-11.29 50.02 4.05 18.29 18.4 34.39 36.55 41.02 15.18 5.54 30.29 4.88 44.89-1.98 5.7-2.67 12.36-2.25 17.67 1.12s8.52 9.23 8.52 15.51v121.86z" fill="#666"/></svg>