<?xml version="1.0" encoding="UTF-8" standalone="no"?>
<svg
   enable-background="new 0 0 1000 1000"
   viewBox="0 0 1000 1000"
   version="1.1"
   id="svg10"
   sodipodi:docname="satzmodell-kombi.svg"
   width="1000"
   height="1000"
   inkscape:version="1.1 (c68e22c387, 2021-05-23)"
   xmlns:inkscape="http://www.inkscape.org/namespaces/inkscape"
   xmlns:sodipodi="http://sodipodi.sourceforge.net/DTD/sodipodi-0.dtd"
   xmlns="http://www.w3.org/2000/svg"
   xmlns:svg="http://www.w3.org/2000/svg">
  <defs
     id="defs14" />
  <sodipodi:namedview
     id="namedview12"
     pagecolor="#505050"
     bordercolor="#eeeeee"
     borderopacity="1"
     inkscape:pageshadow="0"
     inkscape:pageopacity="0"
     inkscape:pagecheckerboard="0"
     showgrid="false"
     inkscape:zoom="0.52679455"
     inkscape:cx="505.88982"
     inkscape:cy="445.14507"
     inkscape:window-width="1920"
     inkscape:window-height="1009"
     inkscape:window-x="-8"
     inkscape:window-y="-8"
     inkscape:window-maximized="1"
     inkscape:current-layer="svg10" />
  <path
     d="m 420.96,719.28 c -19.08,-6.97 -36.81,-4.77 -51.85,2.29 V 598.33 H 254.65 c -5.15,0 -8.25,5.64 -5.43,9.94 9.2,14.02 13.34,31.65 9.63,50.38 -5.26,26.51 -27.25,48.01 -53.88,52.66 -42.57,7.43 -79.53,-25.13 -79.53,-66.32 0,-13.51 4.03,-26.06 10.9,-36.59 2.85,-4.37 -0.15,-10.08 -5.37,-10.08 H 21.72 v 285.52 c 0,31.31 25.38,56.7 56.7,56.7 h 290.7 v -97.31 c 8.69,4.08 18.29,6.54 28.52,6.54 42.25,0 75.41,-38.87 65.67,-82.79 -4.83,-21.77 -21.39,-40.05 -42.35,-47.7 z"
     fill="#f2f2f2"
     id="path2" />
  <path
     d="M 369.11,958.82 H 78.41 C 37.07,958.82 3.44,925.19 3.44,883.85 V 598.33 c 0,-10.09 8.18,-18.27 18.27,-18.27 h 109.26 c 9.1,0 17.43,4.95 21.75,12.92 4.34,8.01 3.92,17.75 -1.08,25.42 -5.19,7.94 -7.93,17.14 -7.93,26.6 0,14.54 6.39,28.25 17.53,37.61 11.3,9.5 25.71,13.3 40.58,10.71 19.22,-3.35 35.3,-19.07 39.1,-38.22 3.29,-16.6 -1.98,-29.18 -6.98,-36.8 -4.98,-7.6 -5.4,-17.27 -1.09,-25.25 4.32,-8.01 12.68,-12.98 21.8,-12.98 h 114.46 c 10.09,0 18.27,8.18 18.27,18.27 v 99.06 c 13.23,-1.66 26.68,-0.09 39.85,4.72 27.12,9.91 47.78,33.25 53.91,60.92 5.76,25.98 -0.32,52.57 -16.68,72.95 -16.36,20.38 -40.72,32.07 -66.83,32.07 -3.43,0 -6.85,-0.21 -10.25,-0.64 v 73.14 c 0,10.08 -8.18,18.26 -18.27,18.26 z M 39.99,616.6 v 267.25 c 0,21.19 17.24,38.43 38.43,38.43 h 272.43 v -79.04 c 0,-6.25 3.2,-12.07 8.47,-15.42 5.28,-3.35 11.9,-3.77 17.56,-1.12 6.8,3.19 13.78,4.81 20.76,4.81 14.97,0 28.95,-6.71 38.33,-18.4 9.53,-11.87 12.9,-26.84 9.5,-42.17 -3.41,-15.38 -15.49,-28.92 -30.77,-34.51 -12.79,-4.67 -25.52,-4.11 -37.82,1.66 -5.66,2.66 -12.28,2.24 -17.56,-1.12 -5.28,-3.35 -8.47,-9.17 -8.47,-15.42 V 616.6 H 273.6 c 5.1,14.42 6.25,30.09 3.17,45.61 -6.77,34.15 -34.37,61.12 -68.66,67.11 -25.31,4.42 -50.96,-2.41 -70.38,-18.73 -19.42,-16.33 -30.56,-40.23 -30.56,-65.58 0,-9.74 1.66,-19.33 4.87,-28.4 H 39.99 Z"
     fill="#666666"
     id="path4" />
  <path
     d="m 925.26277,292.47932 c -18.17419,6.6391 -35.06247,4.54354 -49.38846,-2.18129 V 407.68732 H 766.8482 c -4.90551,0 -7.85834,-5.37224 -5.17221,-9.4681 8.76323,-13.35441 12.70669,-30.14744 9.17282,-47.98825 -5.01028,-25.25146 -25.95633,-45.73078 -51.32209,-50.16002 -40.54902,-7.07727 -75.75438,23.93698 -75.75438,63.17152 0,12.86862 3.83868,24.82282 10.38253,34.85292 2.7147,4.16254 -0.14288,9.60146 -5.11506,9.60146 H 544.97636 V 135.73167 c 0,-29.82359 24.17511,-54.008217 54.00822,-54.008217 h 276.89925 v 92.690287 c 8.27745,-3.88631 17.4217,-6.22952 27.16604,-6.22952 40.24423,0 71.82998,37.02468 62.55238,78.85961 -4.6007,20.73649 -20.37453,38.14866 -40.33948,45.43549 z"
     fill="#f2f2f2"
     id="path2-7"
     style="stroke-width:0.952526" />
  <path
     d="M 875.87431,64.311281 H 598.97505 c -39.37742,0 -71.41086,32.033444 -71.41086,71.410859 v 271.96518 c 0,9.61099 7.79166,17.40265 17.40265,17.40265 h 104.07297 c 8.66798,0 16.60252,-4.715 20.71744,-12.30663 4.13396,-7.62973 3.7339,-16.90734 -1.02873,-24.21321 -4.94361,-7.56305 -7.55353,-16.32629 -7.55353,-25.33719 0,-13.84972 6.08664,-26.90885 16.69778,-35.82449 10.76354,-9.049 24.48943,-12.66861 38.65349,-10.20155 18.30755,3.19096 33.62416,18.16466 37.24376,36.40553 3.13381,15.81193 -1.886,27.79471 -6.64863,35.05295 -4.74358,7.2392 -5.14364,16.45012 -1.03825,24.05128 4.11491,7.62973 12.07803,12.36379 20.76506,12.36379 h 109.02611 c 9.61098,0 17.40265,-7.79167 17.40265,-17.40265 v -94.35722 c 12.60191,1.58119 25.41338,0.0857 37.95816,-4.49592 25.8325,-9.43953 45.51168,-31.67148 51.35067,-58.02787 5.48654,-24.74662 -0.30481,-50.07429 -15.88813,-69.48676 -15.58333,-19.41248 -38.78686,-30.54751 -63.65731,-30.54751 -3.26717,0 -6.52481,0.20003 -9.76339,0.60962 V 81.704403 c 0,-9.601461 -7.79167,-17.393122 -17.40265,-17.393122 z M 562.37901,390.28468 V 135.72214 c 0,-20.18402 16.42154,-36.605566 36.60557,-36.605566 h 259.49661 v 75.287636 c 0,5.95329 3.04808,11.49699 8.06789,14.68795 5.02934,3.19096 11.33506,3.59103 16.72635,1.06683 6.47718,-3.03856 13.12581,-4.58165 19.77444,-4.58165 14.25931,0 27.57563,6.39145 36.51032,17.52648 9.07758,11.30648 12.28759,25.56579 9.049,40.16801 -3.24811,14.64985 -14.75462,27.54705 -29.30923,32.87167 -12.1828,4.44829 -24.30846,3.91488 -36.02453,-1.58119 -5.39129,-2.53372 -11.69701,-2.13366 -16.72635,1.06682 -5.02934,3.19097 -8.06789,8.73467 -8.06789,14.68795 v 99.9676 h -73.58262 c 4.85788,-13.73542 5.95328,-28.6615 3.0195,-43.44471 -6.4486,-32.52876 -32.73831,-58.21838 -65.40042,-63.92401 -24.10843,-4.21017 -48.54072,2.29558 -67.03877,17.84081 -18.49805,15.55475 -29.10919,38.32012 -29.10919,62.46665 0,9.2776 1.5812,18.41232 4.6388,27.05173 h -68.62948 z"
     fill="#666666"
     id="path4-7"
     style="stroke-width:0.952526" />
  <path
     d="m 649.01,546.39 c -6.97,19.08 -4.77,36.81 2.29,51.85 H 528.07 v 114.47 c 0,5.15 5.64,8.25 9.94,5.43 14.03,-9.2 31.65,-13.34 50.38,-9.63 26.51,5.26 48.01,27.25 52.66,53.88 7.43,42.57 -25.13,79.53 -66.32,79.53 -13.51,0 -26.06,-4.03 -36.59,-10.9 -4.37,-2.85 -10.08,0.15 -10.08,5.37 v 109.26 h 285.52 c 31.31,0 56.7,-25.38 56.7,-56.7 v -290.7 h -97.31 c 4.08,-8.69 6.54,-18.29 6.54,-28.52 0,-42.25 -38.87,-75.41 -82.79,-65.67 -21.77,4.82 -40.06,21.38 -47.71,42.33 z"
     fill="#f2f2f2"
     id="path6" />
  <path
     d="M 813.58,963.91 H 528.06 c -10.09,0 -18.27,-8.18 -18.27,-18.27 V 836.38 c 0,-9.1 4.95,-17.43 12.92,-21.75 8.01,-4.34 17.75,-3.92 25.41,1.08 7.95,5.19 17.15,7.93 26.6,7.93 14.54,0 28.25,-6.39 37.61,-17.53 9.5,-11.3 13.3,-25.71 10.71,-40.58 -3.35,-19.22 -19.07,-35.3 -38.22,-39.1 -16.6,-3.29 -29.18,1.98 -36.8,6.98 -7.6,4.99 -17.28,5.4 -25.26,1.09 -8.01,-4.32 -12.98,-12.68 -12.98,-21.8 V 598.24 c 0,-10.09 8.18,-18.27 18.27,-18.27 h 99.06 c -1.66,-13.23 -0.09,-26.68 4.72,-39.85 9.91,-27.12 33.25,-47.78 60.92,-53.91 25.97,-5.76 52.56,0.32 72.95,16.68 20.38,16.36 32.07,40.72 32.07,66.83 0,3.43 -0.21,6.85 -0.64,10.25 h 73.14 c 10.09,0 18.27,8.18 18.27,18.27 v 290.7 c 0.01,41.34 -33.62,74.97 -74.96,74.97 z M 546.34,927.37 h 267.25 c 21.19,0 38.43,-17.24 38.43,-38.43 V 616.51 h -79.04 c -6.25,0 -12.07,-3.2 -15.42,-8.47 -3.35,-5.28 -3.77,-11.9 -1.12,-17.56 3.19,-6.8 4.81,-13.78 4.81,-20.76 0,-14.97 -6.71,-28.95 -18.4,-38.33 -11.87,-9.52 -26.84,-12.9 -42.17,-9.5 -15.38,3.41 -28.92,15.49 -34.51,30.77 l -17.16,-6.27 17.16,6.27 c -4.67,12.79 -4.11,25.51 1.67,37.82 2.66,5.66 2.24,12.28 -1.12,17.56 -3.35,5.28 -9.17,8.47 -15.42,8.47 H 546.34 v 77.24 c 14.42,-5.1 30.09,-6.24 45.61,-3.17 34.15,6.77 61.12,34.37 67.11,68.66 4.42,25.31 -2.41,50.96 -18.73,70.38 -16.33,19.42 -40.23,30.56 -65.58,30.56 -9.74,0 -19.33,-1.66 -28.4,-4.87 v 72.06 z"
     fill="#666666"
     id="path8" />
  <g
     fill="#666666"
     id="g10"
     transform="matrix(0.86910487,0,0,0.86910487,-218.65773,-96.82633)">
    <g
       id="g960"
       transform="translate(-9.2048732)">
      <ellipse
         cx="251.43312"
         cy="674.91986"
         rx="123.2849"
         ry="82.183266"
         transform="rotate(-22.711094)"
         id="ellipse4"
         style="stroke-width:1.00004" />
      <path
         d="m 589.71194,521.94 c -11.82,0 -21.41,-9.58 -21.41,-21.41 V 207.52 c 0,-11.82 9.58,-21.41 21.41,-21.41 11.83,0 21.41,9.59 21.41,21.41 v 293.01 c -0.01,11.82 -9.59,21.41 -21.41,21.41 z"
         id="path6-9" />
    </g>
  </g>
</svg>
