<svg enable-background="new 0 0 1000 1000" viewBox="0 0 1000 1000" xmlns="http://www.w3.org/2000/svg"><g fill="#666"><path d="m180.96 594.92c-36.35 0-70.78-9.91-96.94-27.9-28.45-19.56-44.11-46.3-44.11-75.3s15.67-55.74 44.11-75.3c26.17-17.99 60.6-27.9 96.94-27.9s70.78 9.91 96.95 27.9c28.45 19.56 44.11 46.3 44.11 75.3s-15.67 55.74-44.11 75.3c-26.17 17.99-60.6 27.9-96.95 27.9zm0-166.59c-54.88 0-101.25 29.03-101.25 63.39s46.37 63.39 101.25 63.39c54.89 0 101.25-29.03 101.25-63.39s-46.36-63.39-101.25-63.39z"/><path d="m499.4 594.92c-36.35 0-70.78-9.91-96.95-27.9-28.45-19.56-44.11-46.3-44.11-75.3s15.67-55.74 44.11-75.3c26.17-17.99 60.6-27.9 96.95-27.9s70.78 9.91 96.94 27.9c28.45 19.56 44.11 46.3 44.11 75.3s-15.67 55.74-44.11 75.3c-26.16 17.99-60.59 27.9-96.94 27.9zm0-166.59c-54.89 0-101.25 29.03-101.25 63.39s46.37 63.39 101.25 63.39 101.25-29.03 101.25-63.39-46.36-63.39-101.25-63.39z"/><path d="m819.04 594.92c-36.35 0-70.78-9.91-96.94-27.9-28.45-19.56-44.11-46.3-44.11-75.3s15.67-55.74 44.11-75.3c26.17-17.99 60.6-27.9 96.94-27.9 36.35 0 70.78 9.91 96.95 27.9 28.45 19.56 44.11 46.3 44.11 75.3s-15.67 55.74-44.11 75.3c-26.18 17.99-60.6 27.9-96.95 27.9zm0-166.59c-54.88 0-101.25 29.03-101.25 63.39s46.37 63.39 101.25 63.39c54.89 0 101.25-29.03 101.25-63.39s-46.37-63.39-101.25-63.39z"/><path d="m771.88 512.88h-213.58c-10.99 0-19.9-8.91-19.9-19.9s8.91-19.9 19.9-19.9h213.57c10.99 0 19.9 8.91 19.9 19.9s-8.9 19.9-19.89 19.9z"/><path d="m454.34 512.88h-215.77c-10.99 0-19.9-8.91-19.9-19.9s8.91-19.9 19.9-19.9h215.78c10.99 0 19.9 8.91 19.9 19.9s-8.92 19.9-19.91 19.9z"/><path d="m305.13 516.21c-10.99 0-19.9-8.91-19.9-19.9v-253.27c0-10.99 8.91-19.9 19.9-19.9s19.9 8.91 19.9 19.9v253.27c0 10.99-8.91 19.9-19.9 19.9z"/><path d="m386.39 776.87c-10.99 0-19.9-8.91-19.9-19.9v-253.28c0-10.99 8.91-19.9 19.9-19.9s19.9 8.91 19.9 19.9v253.27c0 11-8.91 19.91-19.9 19.91z"/><path d="m707.2 776.87c-10.99 0-19.9-8.91-19.9-19.9v-253.28c0-10.99 8.91-19.9 19.9-19.9s19.9 8.91 19.9 19.9v253.27c0 11-8.91 19.91-19.9 19.91z"/></g></svg>