<?xml version="1.0" encoding="UTF-8" standalone="no"?>
<svg
   enable-background="new 0 0 1000 1000"
   viewBox="0 0 744.72491 649.19861"
   version="1.1"
   id="svg12"
   sodipodi:docname="satzmodell-3 (2).svg"
   width="744.72491"
   height="649.19861"
   inkscape:version="1.1 (c68e22c387, 2021-05-23)"
   xmlns:inkscape="http://www.inkscape.org/namespaces/inkscape"
   xmlns:sodipodi="http://sodipodi.sourceforge.net/DTD/sodipodi-0.dtd"
   xmlns="http://www.w3.org/2000/svg"
   xmlns:svg="http://www.w3.org/2000/svg">
  <defs
     id="defs16" />
  <sodipodi:namedview
     id="namedview14"
     pagecolor="#505050"
     bordercolor="#eeeeee"
     borderopacity="1"
     inkscape:pageshadow="0"
     inkscape:pageopacity="0"
     inkscape:pagecheckerboard="0"
     showgrid="false"
     inkscape:zoom="0.745"
     inkscape:cx="372.48322"
     inkscape:cy="313.42282"
     inkscape:window-width="1920"
     inkscape:window-height="1009"
     inkscape:window-x="-8"
     inkscape:window-y="-8"
     inkscape:window-maximized="1"
     inkscape:current-layer="svg12" />
  <path
     d="m 314.3963,62.58 h -156.3 v 224.46 c -13.56,-13.06 -31.65,-21.45 -51.7,-22.49 -44.869997,-2.34 -84.369997,34.57 -84.979997,79.5 -0.62,45.11 35.77,81.88 80.739997,81.88 21.74,0 41.43,-8.64 55.94,-22.6 v 224.46 h 223.42 c -12.61,-13.62 -20.65,-31.54 -21.48,-51.35 -1.89,-44.59 34.88,-83.55 79.51,-84.18 45.13,-0.64 81.91,35.75 81.91,80.73 0,21.18 -8.22,40.39 -21.55,54.79 h 223.41 v -465.9 c 0,-54.85 -44.46,-99.31 -99.31,-99.31 h -35.07"
     style="fill:#f2f2f2;stroke:#666666;stroke-width:42.8172;stroke-linecap:round;stroke-linejoin:round;stroke-miterlimit:10"
     id="path2" />
  <g
     fill="#666666"
     id="g10"
     transform="translate(-127.6437,-186.11)">
    <ellipse
       cx="545.40997"
       cy="525.52002"
       rx="123.28"
       ry="82.18"
       transform="matrix(0.9225,-0.3861,0.3861,0.9225,-160.6015,251.3053)"
       id="ellipse4" />
    <path
       d="m 642.64,521.94 c -11.82,0 -21.41,-9.58 -21.41,-21.41 V 207.52 c 0,-11.82 9.58,-21.41 21.41,-21.41 11.83,0 21.41,9.59 21.41,21.41 v 293.01 c -0.01,11.82 -9.59,21.41 -21.41,21.41 z"
       id="path6" />
    <path
       d="m 559.69,270.1 h -46.14 c -11.82,0 -21.41,-9.59 -21.41,-21.41 0,-11.82 9.58,-21.41 21.41,-21.41 h 46.14 c 11.82,0 21.41,9.59 21.41,21.41 0,11.82 -9.58,21.41 -21.41,21.41 z"
       id="path8" />
  </g>
</svg>
