<svg enable-background="new 0 0 1000 1000" viewBox="0 0 1000 1000" xmlns="http://www.w3.org/2000/svg"><path d="m474.96 495.28c-19.08-6.97-36.81-4.77-51.85 2.29v-123.24h-114.46c-5.15 0-8.25 5.64-5.43 9.94 9.2 14.02 13.34 31.65 9.63 50.38-5.26 26.51-27.25 48.01-53.88 52.66-42.57 7.43-79.53-25.13-79.53-66.32 0-13.51 4.03-26.06 10.9-36.59 2.85-4.37-.15-10.08-5.37-10.08h-109.25v285.52c0 31.31 25.38 56.7 56.7 56.7h290.7v-97.31c8.69 4.08 18.29 6.54 28.52 6.54 42.25 0 75.41-38.87 65.67-82.79-4.83-21.77-21.39-40.05-42.35-47.7z" fill="#f2f2f2"/><path d="m423.11 734.82h-290.7c-41.34 0-74.97-33.63-74.97-74.97v-285.52c0-10.09 8.18-18.27 18.27-18.27h109.26c9.1 0 17.43 4.95 21.75 12.92 4.34 8.01 3.92 17.75-1.08 25.42-5.19 7.94-7.93 17.14-7.93 26.6 0 14.54 6.39 28.25 17.53 37.61 11.3 9.5 25.71 13.3 40.58 10.71 19.22-3.35 35.3-19.07 39.1-38.22 3.29-16.6-1.98-29.18-6.98-36.8-4.98-7.6-5.4-17.27-1.09-25.25 4.32-8.01 12.68-12.98 21.8-12.98h114.46c10.09 0 18.27 8.18 18.27 18.27v99.06c13.23-1.66 26.68-.09 39.85 4.72 27.12 9.91 47.78 33.25 53.91 60.92 5.76 25.98-.32 52.57-16.68 72.95s-40.72 32.07-66.83 32.07c-3.43 0-6.85-.21-10.25-.64v73.14c0 10.08-8.18 18.26-18.27 18.26zm-329.12-342.22v267.25c0 21.19 17.24 38.43 38.43 38.43h272.43v-79.04c0-6.25 3.2-12.07 8.47-15.42 5.28-3.35 11.9-3.77 17.56-1.12 6.8 3.19 13.78 4.81 20.76 4.81 14.97 0 28.95-6.71 38.33-18.4 9.53-11.87 12.9-26.84 9.5-42.17-3.41-15.38-15.49-28.92-30.77-34.51-12.79-4.67-25.52-4.11-37.82 1.66-5.66 2.66-12.28 2.24-17.56-1.12-5.28-3.35-8.47-9.17-8.47-15.42v-104.95h-77.25c5.1 14.42 6.25 30.09 3.17 45.61-6.77 34.15-34.37 61.12-68.66 67.11-25.31 4.42-50.96-2.41-70.38-18.73-19.42-16.33-30.56-40.23-30.56-65.58 0-9.74 1.66-19.33 4.87-28.4h-72.05z" fill="#666"/><path d="m703.01 322.39c-6.97 19.08-4.77 36.81 2.29 51.85h-123.23v114.47c0 5.15 5.64 8.25 9.94 5.43 14.03-9.2 31.65-13.34 50.38-9.63 26.51 5.26 48.01 27.25 52.66 53.88 7.43 42.57-25.13 79.53-66.32 79.53-13.51 0-26.06-4.03-36.59-10.9-4.37-2.85-10.08.15-10.08 5.37v109.26h285.52c31.31 0 56.7-25.38 56.7-56.7v-290.7h-97.31c4.08-8.69 6.54-18.29 6.54-28.52 0-42.25-38.87-75.41-82.79-65.67-21.77 4.82-40.06 21.38-47.71 42.33z" fill="#f2f2f2"/><path d="m867.58 739.91h-285.52c-10.09 0-18.27-8.18-18.27-18.27v-109.26c0-9.1 4.95-17.43 12.92-21.75 8.01-4.34 17.75-3.92 25.41 1.08 7.95 5.19 17.15 7.93 26.6 7.93 14.54 0 28.25-6.39 37.61-17.53 9.5-11.3 13.3-25.71 10.71-40.58-3.35-19.22-19.07-35.3-38.22-39.1-16.6-3.29-29.18 1.98-36.8 6.98-7.6 4.99-17.28 5.4-25.26 1.09-8.01-4.32-12.98-12.68-12.98-21.8v-114.46c0-10.09 8.18-18.27 18.27-18.27h99.06c-1.66-13.23-.09-26.68 4.72-39.85 9.91-27.12 33.25-47.78 60.92-53.91 25.97-5.76 52.56.32 72.95 16.68 20.38 16.36 32.07 40.72 32.07 66.83 0 3.43-.21 6.85-.64 10.25h73.14c10.09 0 18.27 8.18 18.27 18.27v290.7c.01 41.34-33.62 74.97-74.96 74.97zm-267.24-36.54h267.25c21.19 0 38.43-17.24 38.43-38.43v-272.43h-79.04c-6.25 0-12.07-3.2-15.42-8.47-3.35-5.28-3.77-11.9-1.12-17.56 3.19-6.8 4.81-13.78 4.81-20.76 0-14.97-6.71-28.95-18.4-38.33-11.87-9.52-26.84-12.9-42.17-9.5-15.38 3.41-28.92 15.49-34.51 30.77l-17.16-6.27 17.16 6.27c-4.67 12.79-4.11 25.51 1.67 37.82 2.66 5.66 2.24 12.28-1.12 17.56-3.35 5.28-9.17 8.47-15.42 8.47h-104.96v77.24c14.42-5.1 30.09-6.24 45.61-3.17 34.15 6.77 61.12 34.37 67.11 68.66 4.42 25.31-2.41 50.96-18.73 70.38-16.33 19.42-40.23 30.56-65.58 30.56-9.74 0-19.33-1.66-28.4-4.87v72.06z" fill="#666"/></svg>