<svg enable-background="new 0 0 1000 1000" viewBox="0 0 1000 1000" xmlns="http://www.w3.org/2000/svg"><g stroke="#666" stroke-linecap="round" stroke-linejoin="round" stroke-miterlimit="10"><path d="m469.02 388.41c3.03-20.48 30.01-39.31 51.09-36.19 26.34 3.9 49.87 33.29 46.07 58.89-4.74 32-35.27 53.98-68.2 49.11-41.16-6.1-69.72-43.46-63.79-83.46 5.28-35.66 20.15-56.03 63.38-88.02 14.61-10.81 55.33-51.37 64.34-87.2 5.06-20.15-6.97-37.53-23.09-39.92-23.3-3.45-35.49 21.65-37.49 46.1-4.47 54.64 2.21 305.99 2.21 305.99l-1.65 9.64c-1.53 10.35-11.17 17.5-21.52 15.97s-17.5-11.17-15.97-21.52c.67-4.55 2.92-8.49 6.1-11.33" fill="none" stroke-width="27.5317"/><g stroke-width="31.6615"><path d="m929.47 838.71h-858.94c-24.81 0-44.92-20.11-44.92-44.92v-150.47c0-24.81 20.11-44.92 44.92-44.92h858.95c24.81 0 44.92 20.11 44.92 44.92v150.46c0 24.82-20.12 44.93-44.93 44.93z" fill="#f2f2f2"/><path d="m255.02 599.37v89.23" fill="#f2f2f2"/><path d="m255.02 748.38v88.5" fill="#f2f2f2"/><path d="m254.7 748.53c-8.03 8.61-19.47 13.99-32.16 13.99-24.28 0-43.97-19.69-43.97-43.97s19.69-43.97 43.97-43.97c3.92 0 7.71.51 11.32 1.47 8.19 2.18 15.44 6.66 21.01 12.71" fill="none"/><path d="m508.52 599.37v89.23" fill="#f2f2f2"/><path d="m508.52 748.38v88.5" fill="#f2f2f2"/><path d="m508.84 748.53c8.03 8.61 19.47 13.99 32.16 13.99 24.28 0 43.97-19.69 43.97-43.97s-19.69-43.97-43.97-43.97c-3.92 0-7.71.51-11.32 1.47-8.19 2.18-15.44 6.66-21.01 12.71" fill="none"/><path d="m756.6 599.37v89.23" fill="#f2f2f2"/><path d="m756.6 748.38v88.5" fill="#f2f2f2"/><path d="m756.27 748.53c-8.03 8.61-19.47 13.99-32.16 13.99-24.28 0-43.97-19.69-43.97-43.97s19.69-43.97 43.97-43.97c3.92 0 7.71.51 11.32 1.47 8.19 2.18 15.44 6.66 21.01 12.71" fill="none"/></g></g></svg>