<?xml version="1.0" encoding="UTF-8" standalone="no"?>
<svg
   width="657.91699pt"
   height="371.36511pt"
   viewBox="0 0 657.91699 371.36511"
   version="1.1"
   id="svg10"
   sodipodi:docname="voiceModelIcon2.svg"
   inkscape:version="1.4 (86a8ad7, 2024-10-11)"
   xmlns:inkscape="http://www.inkscape.org/namespaces/inkscape"
   xmlns:sodipodi="http://sodipodi.sourceforge.net/DTD/sodipodi-0.dtd"
   xmlns="http://www.w3.org/2000/svg"
   xmlns:svg="http://www.w3.org/2000/svg">
  <sodipodi:namedview
     id="namedview10"
     pagecolor="#505050"
     bordercolor="#ffffff"
     borderopacity="1"
     inkscape:showpageshadow="0"
     inkscape:pageopacity="0"
     inkscape:pagecheckerboard="1"
     inkscape:deskcolor="#d1d1d1"
     inkscape:document-units="pt"
     inkscape:zoom="1.36125"
     inkscape:cx="60.97337"
     inkscape:cy="219.28375"
     inkscape:window-width="3840"
     inkscape:window-height="2054"
     inkscape:window-x="-11"
     inkscape:window-y="-11"
     inkscape:window-maximized="1"
     inkscape:current-layer="Hintergrund" />
  <defs
     id="defs1" />
  <g
     inkscape:label="Hintergrund"
     inkscape:groupmode="layer"
     id="Hintergrund"
     transform="translate(-29.043498,-58.183484)">
    <path
       d="M 30.871273,346.028 H 685.13272"
       style="stroke:#171615;stroke-width:3.65555;stroke-linecap:round;stroke-linejoin:round;stroke-dasharray:none"
       id="path1" />
    <path
       d="M 30.871273,365.97556 H 685.13272"
       style="stroke:#171615;stroke-width:3.65555;stroke-linecap:round;stroke-linejoin:round;stroke-dasharray:none"
       id="path2" />
    <path
       d="M 30.871273,385.92311 H 685.13272"
       style="stroke:#171615;stroke-width:3.65555;stroke-linecap:round;stroke-linejoin:round;stroke-dasharray:none"
       id="path3" />
    <path
       d="M 30.871273,405.87067 H 685.13272"
       style="stroke:#171615;stroke-width:3.65555;stroke-linecap:round;stroke-linejoin:round;stroke-dasharray:none"
       id="path4" />
    <path
       d="M 30.871273,425.81823 H 685.13272"
       style="stroke:#171615;stroke-width:3.65555;stroke-linecap:round;stroke-linejoin:round;stroke-dasharray:none"
       id="path5" />
    <path
       d="M 30.871273,176.47377 H 685.13272"
       style="stroke:#171615;stroke-width:3.65555;stroke-linecap:round;stroke-linejoin:round;stroke-dasharray:none"
       id="path6" />
    <path
       d="M 30.871273,196.42133 H 685.13272"
       style="stroke:#171615;stroke-width:3.65555;stroke-linecap:round;stroke-linejoin:round;stroke-dasharray:none"
       id="path7" />
    <path
       d="M 30.871273,216.36889 H 685.13272"
       style="stroke:#171615;stroke-width:3.65555;stroke-linecap:round;stroke-linejoin:round;stroke-dasharray:none"
       id="path8" />
    <path
       d="M 30.871273,236.31644 H 685.13272"
       style="stroke:#171615;stroke-width:3.65555;stroke-linecap:round;stroke-linejoin:round;stroke-dasharray:none"
       id="path9" />
    <path
       d="M 30.871273,256.264 H 685.13272"
       style="stroke:#171615;stroke-width:3.65555;stroke-linecap:round;stroke-linejoin:round;stroke-dasharray:none"
       id="path10" />
    <path
       transform="translate(46.7907,341.507)"
       d="M 25.049,0 C 8.02541,0 0.486388,12.5073 0.486388,21.9491 c 0,7.8477 4.134302,14.5918 11.916512,14.5918 6.2015,0 10.3358,-4.2917 10.3358,-10.4227 0,-6.2537 -4.4991,-10.1775 -9.363,-10.1775 -2.5536,0 -3.52634,0.7357 -4.8639,0.7357 -1.21597,0 -1.45917,-0.8583 -1.45917,-1.8393 0,-3.9239 5.83667,-11.03586 15.68607,-11.03586 10.3357,0 14.8348,10.17756 14.8348,25.62776 0,27.467 -13.4973,42.5493 -36.11433,55.6697 C 0.607985,85.5892 0,86.0797 0,86.8154 c 0,0.6131 0.364791,1.2262 1.21597,1.2262 0.48639,0 1.09437,-0.2452 1.70236,-0.4905 C 26.873,75.6569 52.1652,58.3674 52.1652,28.448 52.1652,11.4037 41.8294,0 25.049,0 Z m 36.6007,8.09296 c -3.0399,0 -5.3502,2.32984 -5.3502,5.39534 0,3.0655 2.3103,5.3953 5.3502,5.3953 3.04,0 5.3503,-2.3298 5.3503,-5.3953 0,-3.0655 -2.3103,-5.39534 -5.3503,-5.39534 z m 0.1216,24.64674 c -3.0399,0 -5.2287,2.2072 -5.2287,5.2727 0,3.0655 2.1888,5.2727 5.2287,5.2727 3.04,0 5.2287,-2.2072 5.2287,-5.2727 0,-3.0655 -2.1887,-5.2727 -5.2287,-5.2727 z"
       style="fill:#808080;fill-rule:evenodd;stroke:none"
       id="Text23+U0" />
    <path
       transform="translate(36.8387,120.507)"
       d="m 38.4228,69.6111 c -0.2553,-1.2749 0,-1.2749 0.6383,-1.9124 C 50.039,56.7343 58.464,45.1325 58.464,28.8134 58.464,19.8889 55.911,11.2194 51.8262,5.09972 50.2943,2.80484 47.6137,0 46.4648,0 45.0607,0 41.8694,2.54986 39.827,4.84473 32.2956,13.2593 29.8702,26.0085 29.8702,36.5905 c 0,5.8646 0.6383,12.4943 1.4042,16.7015 0.1277,1.275 0.2553,1.4024 -0.8936,2.4224 C 15.701,67.8262 0,82.4879 0,103.014 c 0,17.849 12.1268,34.678 37.1463,34.678 2.4254,0 4.9784,-0.255 7.0208,-0.637 1.1489,-0.255 1.4042,-0.383 1.5318,0.892 1.2765,6.885 2.8083,15.682 2.8083,20.527 0,15.044 -10.212,16.956 -16.2116,16.956 -5.489,0 -8.1696,-1.657 -8.1696,-3.06 0,-0.637 0.8935,-1.02 3.1912,-1.657 3.1913,-0.892 6.8932,-3.697 6.8932,-9.562 0,-5.61 -3.5742,-10.454 -9.8291,-10.454 -6.7655,0 -10.8503,5.354 -10.8503,11.729 0,6.63 3.9571,16.574 19.4029,16.574 6.7654,0 20.0411,-3.06 20.0411,-20.399 0,-5.737 -1.7871,-15.426 -2.936,-21.801 -0.2553,-1.148 -0.1276,-1.148 1.2766,-1.658 10.3397,-4.079 17.2328,-12.749 17.2328,-24.351 0,-13.004 -9.5738,-24.6058 -24.6366,-24.6058 -2.6806,0 -2.6806,0 -2.9359,-1.7849 z m 9.5738,-53.802 c 3.319,0 6.1273,2.6774 6.1273,8.2871 0,11.4743 -9.7015,20.3988 -17.7435,27.5384 -0.7659,0.6375 -1.1488,0.51 -1.4041,-0.7649 -0.383,-2.6774 -0.5106,-6.1197 -0.5106,-9.4345 0,-15.9366 7.2761,-25.6261 13.5309,-25.6261 z M 36.891,85.1652 c 0.2553,2.0399 0.2553,1.9124 -1.5318,2.5499 -9.0632,3.0598 -14.8074,11.0919 -14.8074,19.7609 0,9.18 4.723,15.682 11.7438,17.977 0.7659,0.382 2.0424,0.637 2.6807,0.637 0.8935,0 1.2765,-0.51 1.2765,-1.147 0,-0.637 -0.7659,-1.02 -1.5318,-1.275 -4.3402,-1.785 -7.4038,-6.247 -7.4038,-10.964 0,-5.737 4.0849,-10.2 10.2121,-11.857 1.6594,-0.383 1.9147,-0.383 2.0424,0.765 l 5.106,30.471 c 0.2553,1.02 0.1277,1.02 -1.4041,1.402 -1.6595,0.255 -3.7019,0.51 -5.7443,0.51 -17.8711,0 -29.35966,-9.944 -29.35966,-24.096 0,-17.2117 12.63746,-28.3036 25.14716,-38.1205 1.0212,-0.8925 1.1489,-0.765 1.4042,0.3825 z m 7.0208,16.3188 c -0.2553,-1.275 -0.1276,-1.5296 1.1489,-1.5296 8.2973,0.7646 15.0627,7.6496 15.0627,16.7016 0,6.375 -3.8295,11.602 -9.5738,14.407 -1.2765,0.637 -1.4041,0.637 -1.6594,-0.51 z"
       style="fill:#808080;fill-rule:evenodd;stroke:none"
       id="Text24+U0" />
    <path
       d="M 235.45639,58.183484 H 348.55875 L 427.03557,242.78113 505.97059,58.183484 H 618.83716 V 403.12859 H 534.81985 V 150.82981 L 455.42017,336.81677 H 399.10144 L 319.70151,150.82981 v 252.29878 h -84.24512 z"
       style="fill:#808080;fill-rule:evenodd;stroke:none;stroke-width:2.57421"
       id="Text33+U0" />
  </g>
</svg>
