<?xml version="1.0" encoding="UTF-8" standalone="no"?>
<svg
   width="500pt"
   height="500pt"
   viewBox="0 0 500 500"
   version="1.1"
   id="svg10"
   sodipodi:docname="voiceModelIcon.svg"
   inkscape:version="1.4 (86a8ad7, 2024-10-11)"
   xmlns:inkscape="http://www.inkscape.org/namespaces/inkscape"
   xmlns:sodipodi="http://sodipodi.sourceforge.net/DTD/sodipodi-0.dtd"
   xmlns="http://www.w3.org/2000/svg"
   xmlns:svg="http://www.w3.org/2000/svg">
  <sodipodi:namedview
     id="namedview10"
     pagecolor="#505050"
     bordercolor="#ffffff"
     borderopacity="1"
     inkscape:showpageshadow="0"
     inkscape:pageopacity="0"
     inkscape:pagecheckerboard="1"
     inkscape:deskcolor="#d1d1d1"
     inkscape:document-units="pt"
     inkscape:zoom="1.36125"
     inkscape:cx="-68.319559"
     inkscape:cy="297.15335"
     inkscape:window-width="3840"
     inkscape:window-height="2054"
     inkscape:window-x="-11"
     inkscape:window-y="-11"
     inkscape:window-maximized="1"
     inkscape:current-layer="Hintergrund" />
  <defs
     id="defs1" />
  <g
     inkscape:label="Hintergrund"
     inkscape:groupmode="layer"
     id="Hintergrund">
    <path
       transform="translate(30.5435, 346.146)"
       d="M 0 0 L 439.49 0"
       style="stroke-width:3; stroke-linecap:round; stroke-linejoin:round; stroke-dasharray:none; stroke:#171615;"
       id="path1" />
    <path
       transform="translate(30.5435, 366.146)"
       d="M 0 0 L 439.49 0"
       style="stroke-width:3; stroke-linecap:round; stroke-linejoin:round; stroke-dasharray:none; stroke:#171615;"
       id="path2" />
    <path
       transform="translate(30.5435, 386.146)"
       d="M 0 0 L 439.49 0"
       style="stroke-width:3; stroke-linecap:round; stroke-linejoin:round; stroke-dasharray:none; stroke:#171615;"
       id="path3" />
    <path
       transform="translate(30.5435, 406.146)"
       d="M 0 0 L 439.49 0"
       style="stroke-width:3; stroke-linecap:round; stroke-linejoin:round; stroke-dasharray:none; stroke:#171615;"
       id="path4" />
    <path
       transform="translate(30.5435, 426.146)"
       d="M 0 0 L 439.49 0"
       style="stroke-width:3; stroke-linecap:round; stroke-linejoin:round; stroke-dasharray:none; stroke:#171615;"
       id="path5" />
    <path
       transform="translate(30.5435, 176.146)"
       d="M 0 0 L 439.49 0"
       style="stroke-width:3; stroke-linecap:round; stroke-linejoin:round; stroke-dasharray:none; stroke:#171615;"
       id="path6" />
    <path
       transform="translate(30.5435, 196.146)"
       d="M 0 0 L 439.49 0"
       style="stroke-width:3; stroke-linecap:round; stroke-linejoin:round; stroke-dasharray:none; stroke:#171615;"
       id="path7" />
    <path
       transform="translate(30.5435, 216.146)"
       d="M 0 0 L 439.49 0"
       style="stroke-width:3; stroke-linecap:round; stroke-linejoin:round; stroke-dasharray:none; stroke:#171615;"
       id="path8" />
    <path
       transform="translate(30.5435, 236.146)"
       d="M 0 0 L 439.49 0"
       style="stroke-width:3; stroke-linecap:round; stroke-linejoin:round; stroke-dasharray:none; stroke:#171615;"
       id="path9" />
    <path
       transform="translate(30.5435, 256.146)"
       d="M 0 0 L 439.49 0"
       style="stroke-width:3; stroke-linecap:round; stroke-linejoin:round; stroke-dasharray:none; stroke:#171615;"
       id="path10" />
    <path
       transform="translate(46.7907, 341.507)"
       d="M25.049 0 C8.02541 0 0.486388 12.5073 0.486388 21.9491 C0.486388 29.7968 4.62069 36.5409 12.4029 36.5409 C18.6044 36.5409 22.7387 32.2492 22.7387 26.1182 C22.7387 19.8645 18.2396 15.9407 13.3757 15.9407 C10.8221 15.9407 9.84936 16.6764 8.5118 16.6764 C7.29583 16.6764 7.05263 15.8181 7.05263 14.8371 C7.05263 10.9132 12.8893 3.80124 22.7387 3.80124 C33.0744 3.80124 37.5735 13.9788 37.5735 29.429 C37.5735 56.896 24.0762 71.9783 1.45917 85.0987 C0.607985 85.5892 0 86.0797 0 86.8154 C0 87.4285 0.364791 88.0416 1.21597 88.0416 C1.70236 88.0416 2.31034 87.7964 2.91833 87.5511 C26.873 75.6569 52.1652 58.3674 52.1652 28.448 C52.1652 11.4037 41.8294 0 25.049 0 L25.049 0 Z M61.6497 8.09296 C58.6098 8.09296 56.2995 10.4228 56.2995 13.4883 C56.2995 16.5538 58.6098 18.8836 61.6497 18.8836 C64.6897 18.8836 67 16.5538 67 13.4883 C67 10.4228 64.6897 8.09296 61.6497 8.09296 L61.6497 8.09296 Z M61.7713 32.7397 C58.7314 32.7397 56.5426 34.9469 56.5426 38.0124 C56.5426 41.0779 58.7314 43.2851 61.7713 43.2851 C64.8113 43.2851 67 41.0779 67 38.0124 C67 34.9469 64.8113 32.7397 61.7713 32.7397 Z"
       style="fill:#808080; fill-rule:evenodd;stroke:none;"
       id="Text23+U0" />
    <path
       transform="translate(36.8387, 120.507)"
       d="M38.4228 69.6111 C38.1675 68.3362 38.4228 68.3362 39.0611 67.6987 C50.039 56.7343 58.464 45.1325 58.464 28.8134 C58.464 19.8889 55.911 11.2194 51.8262 5.09972 C50.2943 2.80484 47.6137 0 46.4648 0 C45.0607 0 41.8694 2.54986 39.827 4.84473 C32.2956 13.2593 29.8702 26.0085 29.8702 36.5905 C29.8702 42.4551 30.5085 49.0848 31.2744 53.292 C31.4021 54.567 31.5297 54.6944 30.3808 55.7144 C15.701 67.8262 0 82.4879 0 103.014 C0 120.863 12.1268 137.692 37.1463 137.692 C39.5717 137.692 42.1247 137.437 44.1671 137.055 C45.316 136.8 45.5713 136.672 45.6989 137.947 C46.9754 144.832 48.5072 153.629 48.5072 158.474 C48.5072 173.518 38.2952 175.43 32.2956 175.43 C26.8066 175.43 24.126 173.773 24.126 172.37 C24.126 171.733 25.0195 171.35 27.3172 170.713 C30.5085 169.821 34.2104 167.016 34.2104 161.151 C34.2104 155.541 30.6362 150.697 24.3813 150.697 C17.6158 150.697 13.531 156.051 13.531 162.426 C13.531 169.056 17.4881 179 32.9339 179 C39.6993 179 52.975 175.94 52.975 158.601 C52.975 152.864 51.1879 143.175 50.039 136.8 C49.7837 135.652 49.9114 135.652 51.3156 135.142 C61.6553 131.063 68.5484 122.393 68.5484 110.791 C68.5484 97.787 58.9746 86.1852 43.9118 86.1852 C41.2312 86.1852 41.2312 86.1852 40.9759 84.4003 L38.4228 69.6111 L38.4228 69.6111 Z M47.9966 15.8091 C51.3156 15.8091 54.1239 18.4865 54.1239 24.0962 C54.1239 35.5705 44.4224 44.495 36.3804 51.6346 C35.6145 52.2721 35.2316 52.1446 34.9763 50.8697 C34.5933 48.1923 34.4657 44.75 34.4657 41.4352 C34.4657 25.4986 41.7418 15.8091 47.9966 15.8091 L47.9966 15.8091 Z M36.891 85.1652 C37.1463 87.2051 37.1463 87.0776 35.3592 87.7151 C26.296 90.7749 20.5518 98.807 20.5518 107.476 C20.5518 116.656 25.2748 123.158 32.2956 125.453 C33.0615 125.835 34.338 126.09 34.9763 126.09 C35.8698 126.09 36.2528 125.58 36.2528 124.943 C36.2528 124.306 35.4869 123.923 34.721 123.668 C30.3808 121.883 27.3172 117.421 27.3172 112.704 C27.3172 106.967 31.4021 102.504 37.5293 100.847 C39.1887 100.464 39.444 100.464 39.5717 101.612 L44.6777 132.083 C44.933 133.103 44.8054 133.103 43.2736 133.485 C41.6141 133.74 39.5717 133.995 37.5293 133.995 C19.6582 133.995 8.16964 124.051 8.16964 109.899 C8.16964 92.6873 20.8071 81.5954 33.3168 71.7785 C34.338 70.886 34.4657 71.0135 34.721 72.161 L36.891 85.1652 L36.891 85.1652 Z M43.9118 101.484 C43.6565 100.209 43.7842 99.9544 45.0607 99.9544 C53.358 100.719 60.1234 107.604 60.1234 116.656 C60.1234 123.031 56.2939 128.258 50.5496 131.063 C49.2731 131.7 49.1455 131.7 48.8902 130.553 L43.9118 101.484 Z"
       style="fill:#808080; fill-rule:evenodd;stroke:none;"
       id="Text24+U0" />
    <path
       d="m 158.32139,33.94106 h 90.34009 L 311.34454,181.38773 374.3936,33.94106 h 90.15175 v 275.52361 h -67.10851 v -201.5227 l -63.4202,148.55638 h -44.98437 l -63.4204,-148.55638 v 201.5227 h -67.29048 z"
       style="fill:#808080;fill-rule:evenodd;stroke:none;stroke-width:2.05615"
       id="Text33+U0" />
  </g>
</svg>
